RobotoFlex-opsz144-wght900-wdth100-YOPQ135.ufo
<glyph name="exclam" format="2">
  <advance width="696"/>
  <unicode hex="0021"/>
  <outline>
    <contour>
      <point x="44.0" y="266.2857142857143" type="qcurve" smooth="yes"/>
      <point x="44.0" y="384.32142857142856"/>
      <point x="200.0" y="554.5714285714286"/>
      <point x="344.0" y="554.5714285714286" type="qcurve" smooth="yes"/>
      <point x="493.0" y="554.5714285714286"/>
      <point x="652.0" y="384.32142857142856"/>
      <point x="652.0" y="266.2857142857143" type="qcurve" smooth="yes"/>
      <point x="652.0" y="148.25"/>
      <point x="496.0" y="-22.0"/>
      <point x="348.0" y="-22.0" type="qcurve" smooth="yes"/>
      <point x="200.0" y="-22.0"/>
      <point x="44.0" y="148.25"/>
    </contour>
    <contour>
      <point x="99.0" y="566.1071428571429" type="line"/>
      <point x="90.0" y="1456.0" type="line"/>
      <point x="606.0" y="1456.0" type="line"/>
      <point x="596.0" y="566.1071428571429" type="line"/>
    </contour>
  </outline>
</glyph>
<glyph name="parenright" format="2">
  <advance width="767"/>
  <unicode hex="0029"/>
  <outline>
    <contour>
      <point x="24.0" y="-436.0" type="qcurve"/>
      <point x="24.0" y="-74.21428571428572" type="line"/>
      <point x="116.0" y="-38.28571428571428"/>
      <point x="137.0" y="170.58928571428572"/>
      <point x="137.0" y="508.0" type="qcurve" smooth="yes"/>
      <point x="137.0" y="532.0" type="line" smooth="yes"/>
      <point x="137.0" y="865.6607142857143"/>
      <point x="116.0" y="1078.2857142857142"/>
      <point x="24.0" y="1114.2142857142858" type="qcurve"/>
      <point x="24.0" y="1476.0" type="line"/>
      <point x="335.0" y="1420.642857142857"/>
      <point x="733.0" y="955.4464285714286"/>
      <point x="733.0" y="526.0" type="qcurve" smooth="yes"/>
      <point x="733.0" y="515.0" type="line" smooth="yes"/>
      <point x="733.0" y="81.0"/>
      <point x="335.0" y="-380.64285714285717"/>
    </contour>
  </outline>
</glyph>
<glyph name="hyphen" format="2">
  <advance width="874"/>
  <unicode hex="002D"/>
  <outline>
    <contour>
      <point x="48.64285714285714" y="399.0" type="line"/>
      <point x="48.64285714285714" y="851.0" type="line"/>
      <point x="825.6428571428571" y="851.0" type="line"/>
      <point x="825.6428571428571" y="399.0" type="line"/>
    </contour>
  </outline>
</glyph>
<glyph name="two" format="2">
  <advance width="1333"/>
  <unicode hex="0032"/>
  <outline>
    <contour>
      <point x="8.0" y="0.0" type="line"/>
      <point x="8.0" y="391.5" type="line"/>
      <point x="612.0" y="849.7142857142857" type="line" smooth="yes"/>
      <point x="647.0" y="869.6785714285714"/>
      <point x="695.0" y="933.625"/>
      <point x="695.0" y="982.9285714285713" type="qcurve" smooth="yes"/>
      <point x="695.0" y="1032.232142857143"/>
      <point x="677.0" y="1055.3214285714287"/>
      <point x="652.0" y="1055.3214285714287" type="qcurve" smooth="yes"/>
      <point x="625.0" y="1055.3214285714287"/>
      <point x="610.0" y="1014.1071428571429"/>
      <point x="610.0" y="915.2857142857142" type="qcurve" smooth="yes"/>
      <point x="610.0" y="850.2857142857143" type="line"/>
      <point x="9.0" y="850.2857142857143" type="line"/>
      <point x="9.0" y="1011.2857142857142" type="line" smooth="yes"/>
      <point x="9.0" y="1189.107142857143"/>
      <point x="361.0" y="1476.0"/>
      <point x="662.0" y="1476.0" type="qcurve" smooth="yes"/>
      <point x="990.0" y="1476.0"/>
      <point x="1288.0" y="1223.2857142857142"/>
      <point x="1290.0" y="1007.9285714285713" type="qcurve" smooth="yes"/>
      <point x="1291.0" y="851.7857142857143"/>
      <point x="1174.0" y="629.9464285714286"/>
      <point x="1071.0" y="561.9821428571429" type="qcurve" smooth="yes"/>
      <point x="933.8571428571429" y="501.8928571428571" type="line"/>
      <point x="1324.0" y="501.8928571428571" type="line"/>
      <point x="1324.0" y="0.0" type="line"/>
    </contour>
  </outline>
</glyph>
<glyph name="five" format="2">
  <advance width="1333"/>
  <unicode hex="0035"/>
  <outline>
    <contour>
      <point x="11.0" y="469.7142857142857" type="qcurve" smooth="yes"/>
      <point x="11.0" y="575.7142857142858" type="line"/>
      <point x="599.0" y="572.7142857142858" type="line"/>
      <point x="599.0" y="489.7142857142857" type="line" smooth="yes"/>
      <point x="599.0" y="432.46938775510205"/>
      <point x="627.0" y="389.0"/>
      <point x="661.0" y="389.0" type="qcurve" smooth="yes"/>
      <point x="692.0" y="389.0"/>
      <point x="721.0" y="416.2433234421365"/>
      <point x="721.0" y="504.0" type="qcurve" smooth="yes"/>
      <point x="721.0" y="583.4965156794425"/>
      <point x="693.0" y="610.2678571428571"/>
      <point x="665.0" y="610.2678571428571" type="qcurve" smooth="yes"/>
      <point x="639.0" y="610.2678571428571"/>
      <point x="607.0" y="581.2262505402916"/>
      <point x="602.0" y="553.75" type="qcurve"/>
      <point x="26.0" y="641.9642857142857" type="line"/>
      <point x="107.0" y="1456.0" type="line"/>
      <point x="1243.0" y="1456.0" type="line"/>
      <point x="1243.0" y="961.1785714285713" type="line"/>
      <point x="531.0" y="976.1785714285713" type="line"/>
      <point x="529.0" y="927.0" type="line"/>
      <point x="599.0" y="959.3774130320813"/>
      <point x="758.0" y="993.0"/>
      <point x="833.0" y="993.0" type="qcurve" smooth="yes"/>
      <point x="1034.0" y="993.0"/>
      <point x="1315.0" y="767.0"/>
      <point x="1315.0" y="532.0" type="qcurve" smooth="yes"/>
      <point x="1315.0" y="283.0"/>
      <point x="989.0" y="-20.0"/>
      <point x="672.0" y="-20.0" type="qcurve" smooth="yes"/>
      <point x="384.0" y="-20.0"/>
      <point x="11.0" y="233.16071428571428"/>
    </contour>
  </outline>
</glyph>
<glyph name="eight" format="2">
  <advance width="1333"/>
  <unicode hex="0038"/>
  <outline>
    <contour>
      <point x="16.0" y="417.0" type="qcurve" smooth="yes"/>
      <point x="16.0" y="554.0"/>
      <point x="164.73214285714286" y="737.7321428571429"/>
      <point x="244.73214285714286" y="762.1964285714286" type="qcurve"/>
      <point x="244.73214285714286" y="766.1964285714286" type="line"/>
      <point x="148.73214285714286" y="816.1964285714286"/>
      <point x="55.0" y="972.0"/>
      <point x="55.0" y="1074.0" type="qcurve" smooth="yes"/>
      <point x="55.0" y="1253.0"/>
      <point x="369.7321428571429" y="1476.0"/>
      <point x="666.7321428571429" y="1476.0" type="qcurve" smooth="yes"/>
      <point x="963.7321428571429" y="1476.0"/>
      <point x="1278.0" y="1252.4642857142858"/>
      <point x="1278.0" y="1074.0" type="qcurve" smooth="yes"/>
      <point x="1278.0" y="972.0"/>
      <point x="1183.0" y="804.1964285714286"/>
      <point x="1089.0" y="766.1964285714286" type="qcurve"/>
      <point x="1089.0" y="762.1964285714286" type="line"/>
      <point x="1169.0" y="737.7321428571429"/>
      <point x="1317.0" y="554.0"/>
      <point x="1317.0" y="417.0" type="qcurve" smooth="yes"/>
      <point x="1317.0" y="226.0"/>
      <point x="965.7321428571429" y="-20.0"/>
      <point x="666.7321428571429" y="-20.0" type="qcurve" smooth="yes"/>
      <point x="367.7321428571429" y="-20.0"/>
      <point x="16.0" y="226.0"/>
    </contour>
    <contour>
      <point x="617.0" y="487.35714285714283" type="qcurve" smooth="yes"/>
      <point x="617.0" y="407.26785714285717"/>
      <point x="640.7321428571429" y="376.32142857142856"/>
      <point x="665.7321428571429" y="376.32142857142856" type="qcurve" smooth="yes"/>
      <point x="690.7321428571429" y="376.32142857142856"/>
      <point x="715.0" y="407.26785714285717"/>
      <point x="715.0" y="487.35714285714283" type="qcurve" smooth="yes"/>
      <point x="715.0" y="569.7857142857143"/>
      <point x="692.7321428571429" y="600.3392857142857"/>
      <point x="666.7321428571429" y="600.3392857142857" type="qcurve" smooth="yes"/>
      <point x="640.7321428571429" y="600.3392857142857"/>
      <point x="617.0" y="569.7857142857143"/>
    </contour>
    <contour>
      <point x="617.0" y="977.6428571428571" type="qcurve" smooth="yes"/>
      <point x="617.0" y="915.9464285714286"/>
      <point x="640.7321428571429" y="883.6607142857143"/>
      <point x="665.7321428571429" y="883.6607142857143" type="qcurve" smooth="yes"/>
      <point x="690.7321428571429" y="883.6607142857143"/>
      <point x="715.0" y="915.9464285714286"/>
      <point x="715.0" y="977.6428571428571" type="qcurve" smooth="yes"/>
      <point x="715.0" y="1038.0"/>
      <point x="690.7321428571429" y="1070.6785714285713"/>
      <point x="665.7321428571429" y="1070.6785714285713" type="qcurve" smooth="yes"/>
      <point x="640.7321428571429" y="1070.6785714285713"/>
      <point x="617.0" y="1038.0"/>
    </contour>
  </outline>
</glyph>
<glyph name="greater" format="2">
  <advance width="964"/>
  <unicode hex="003E"/>
  <outline>
    <contour>
      <point x="61.821428571428584" y="2.75" type="line"/>
      <point x="61.821428571428584" y="555.4821428571429" type="line"/>
      <point x="463.50000000000006" y="685.875" type="line"/>
      <point x="61.821428571428584" y="806.2678571428571" type="line"/>
      <point x="61.821428571428584" y="1356.3214285714287" type="line"/>
      <point x="912.5535714285714" y="918.7321428571429" type="line"/>
      <point x="912.5535714285714" y="448.7321428571429" type="line"/>
    </contour>
  </outline>
</glyph>
<glyph name="question" format="2">
  <advance width="1277"/>
  <unicode hex="003F"/>
  <outline>
    <contour>
      <point x="286.0" y="266.2857142857143" type="qcurve" smooth="yes"/>
      <point x="286.0" y="384.32142857142856"/>
      <point x="446.0" y="554.5714285714286"/>
      <point x="598.0" y="554.5714285714286" type="qcurve" smooth="yes"/>
      <point x="750.0" y="554.5714285714286"/>
      <point x="910.0" y="384.32142857142856"/>
      <point x="910.0" y="266.2857142857143" type="qcurve" smooth="yes"/>
      <point x="910.0" y="148.25"/>
      <point x="750.0" y="-22.0"/>
      <point x="598.0" y="-22.0" type="qcurve" smooth="yes"/>
      <point x="450.0" y="-22.0"/>
      <point x="286.0" y="148.25"/>
    </contour>
    <contour>
      <point x="25.0" y="945.9107142857143" type="line"/>
      <point x="25.0" y="1063.267857142857" type="line" smooth="yes"/>
      <point x="25.0" y="1240.9642857142858"/>
      <point x="324.0" y="1476.0"/>
      <point x="613.0" y="1476.0" type="qcurve" smooth="yes"/>
      <point x="934.0" y="1476.0"/>
      <point x="1256.0" y="1286.9642857142858"/>
      <point x="1256.0" y="1124.607142857143" type="qcurve" smooth="yes"/>
      <point x="1256.0" y="974.6785714285714"/>
      <point x="1139.0" y="844.1785714285714"/>
      <point x="1047.0" y="769.25" type="qcurve" smooth="yes"/>
      <point x="957.0" y="700.8035714285714"/>
      <point x="877.0" y="636.0357142857143"/>
      <point x="877.0" y="591.7142857142858" type="qcurve" smooth="yes"/>
      <point x="877.0" y="549.7142857142858" type="line"/>
      <point x="320.0" y="549.7142857142858" type="line"/>
      <point x="320.0" y="614.7142857142858" type="line" smooth="yes"/>
      <point x="320.0" y="704.375"/>
      <point x="411.0" y="841.9464285714286"/>
      <point x="534.0" y="925.9107142857143" type="qcurve" smooth="yes"/>
      <point x="621.0" y="985.3571428571429"/>
      <point x="647.0" y="1000.9642857142857"/>
      <point x="647.0" y="1021.6071428571429" type="qcurve" smooth="yes"/>
      <point x="647.0" y="1047.25"/>
      <point x="620.0" y="1058.75"/>
      <point x="582.0" y="1058.75" type="qcurve" smooth="yes"/>
      <point x="544.0" y="1058.75"/>
      <point x="513.0" y="1023.5714285714287"/>
      <point x="513.0" y="973.2678571428571" type="qcurve" smooth="yes"/>
      <point x="513.0" y="945.9107142857143" type="line"/>
    </contour>
  </outline>
</glyph>
<glyph name="at" format="2">
  <advance width="2145"/>
  <unicode hex="0040"/>
  <outline>
    <contour>
      <point x="564.0" y="400.0" type="qcurve" smooth="yes"/>
      <point x="564.0" y="705.0"/>
      <point x="905.0" y="1052.0"/>
      <point x="1130.0" y="1052.0" type="qcurve" smooth="yes"/>
      <point x="1212.0" y="1052.0"/>
      <point x="1355.0" y="1003.0"/>
      <point x="1397.0" y="946.0" type="qcurve"/>
      <point x="1703.0" y="946.0" type="line"/>
      <point x="1598.0" y="350.0" type="line" smooth="yes"/>
      <point x="1591.0" y="317.64285714285717"/>
      <point x="1598.0" y="293.1428571428571"/>
      <point x="1627.0" y="292.1428571428571" type="qcurve" smooth="yes"/>
      <point x="1679.0" y="291.1428571428571"/>
      <point x="1746.0" y="442.76785714285717"/>
      <point x="1746.0" y="599.0" type="qcurve" smooth="yes"/>
      <point x="1746.0" y="830.0896760343483"/>
      <point x="1428.0" y="1105.5"/>
      <point x="1140.0" y="1105.5" type="qcurve" smooth="yes"/>
      <point x="859.0" y="1105.5"/>
      <point x="487.0" y="725.558694181326"/>
      <point x="487.0" y="409.0" type="qcurve" smooth="yes"/>
      <point x="487.0" y="183.58752515090544"/>
      <point x="736.0" y="-47.5"/>
      <point x="973.0" y="-47.5" type="qcurve" smooth="yes"/>
      <point x="1095.0" y="-47.5"/>
      <point x="1267.0" y="-2.5"/>
      <point x="1323.0" y="32.5" type="qcurve"/>
      <point x="1323.0" y="-366.0" type="line"/>
      <point x="1263.218937330579" y="-408.42527028152466"/>
      <point x="1095.0" y="-446.0"/>
      <point x="973.0" y="-446.0" type="qcurve" smooth="yes"/>
      <point x="578.0" y="-446.0"/>
      <point x="2.0" y="40.0"/>
      <point x="2.0" y="460.0" type="qcurve" smooth="yes"/>
      <point x="2.0" y="880.0"/>
      <point x="677.0" y="1486.0"/>
      <point x="1140.0" y="1486.0" type="qcurve" smooth="yes"/>
      <point x="1584.0" y="1486.0"/>
      <point x="2149.0" y="1000.0"/>
      <point x="2149.0" y="650.0" type="qcurve" smooth="yes"/>
      <point x="2149.0" y="360.0"/>
      <point x="1833.8305647840534" y="0.0"/>
      <point x="1567.0" y="0.0" type="qcurve" smooth="yes"/>
      <point x="1407.0" y="0.0"/>
      <point x="1225.0" y="95.46428571428571"/>
      <point x="1188.0" y="180.0" type="qcurve"/>
      <point x="1143.0" y="97.19642857142857"/>
      <point x="1002.0" y="0.0"/>
      <point x="923.0" y="0.0" type="qcurve" smooth="yes"/>
      <point x="759.0" y="0.0"/>
      <point x="564.0" y="220.0"/>
    </contour>
    <contour>
      <point x="1061.0" y="427.0" type="qcurve" smooth="yes"/>
      <point x="1061.0" y="374.30357142857144"/>
      <point x="1080.0" y="346.1428571428571"/>
      <point x="1098.0" y="346.1428571428571" type="qcurve" smooth="yes"/>
      <point x="1121.0" y="346.1428571428571"/>
      <point x="1150.0" y="381.26785714285717"/>
      <point x="1158.0" y="428.39285714285717" type="qcurve" smooth="yes"/>
      <point x="1209.0" y="720.5714285714286" type="line"/>
      <point x="1197.0" y="730.5714285714286"/>
      <point x="1176.0" y="738.5714285714286"/>
      <point x="1164.0" y="738.5714285714286" type="qcurve" smooth="yes"/>
      <point x="1125.0" y="738.5714285714286"/>
      <point x="1061.0" y="545.8928571428571"/>
    </contour>
  </outline>
</glyph>
<glyph name="D" format="2">
  <advance width="1378"/>
  <unicode hex="0044"/>
  <outline>
    <contour>
      <point x="40.0" y="0.0" type="line"/>
      <point x="40.0" y="1456.0" type="line"/>
      <point x="736.0" y="1456.0" type="line" smooth="yes"/>
      <point x="1033.0" y="1456.0"/>
      <point x="1354.0" y="1097.0"/>
      <point x="1354.0" y="772.0" type="qcurve" smooth="yes"/>
      <point x="1354.0" y="694.0" type="line" smooth="yes"/>
      <point x="1354.0" y="370.0"/>
      <point x="1027.0" y="0.0"/>
      <point x="736.0" y="0.0" type="qcurve" smooth="yes"/>
    </contour>
    <contour>
      <point x="620.0" y="422.0" type="line"/>
      <point x="662.0" y="422.0" type="line" smooth="yes"/>
      <point x="706.0" y="422.0"/>
      <point x="751.0" y="492.19642857142856"/>
      <point x="751.0" y="591.0" type="qcurve" smooth="yes"/>
      <point x="751.0" y="861.0" type="line" smooth="yes"/>
      <point x="751.0" y="963.8035714285714"/>
      <point x="709.0" y="1014.0"/>
      <point x="662.0" y="1014.0" type="qcurve" smooth="yes"/>
      <point x="620.0" y="1014.0" type="line"/>
    </contour>
  </outline>
</glyph>
<glyph name="J" format="2">
  <advance width="1273"/>
  <unicode hex="004A"/>
  <outline>
    <contour>
      <point x="25.0" y="563.9285714285714" type="qcurve" smooth="yes"/>
      <point x="25.0" y="674.4642857142857" type="line"/>
      <point x="543.0" y="674.4642857142857" type="line"/>
      <point x="543.0" y="467.46428571428567" type="line" smooth="yes"/>
      <point x="543.0" y="427.4642857142857"/>
      <point x="565.0" y="391.7321428571429"/>
      <point x="587.0" y="391.7321428571429" type="qcurve" smooth="yes"/>
      <point x="608.0" y="391.7321428571429"/>
      <point x="632.0" y="431.4642857142857"/>
      <point x="632.0" y="478.46428571428567" type="qcurve" smooth="yes"/>
      <point x="632.0" y="1456.0" type="line"/>
      <point x="1233.0" y="1456.0" type="line"/>
      <point x="1233.0" y="548.2678571428571" type="line" smooth="yes"/>
      <point x="1233.0" y="277.73214285714283"/>
      <point x="940.0" y="-20.0"/>
      <point x="630.0" y="-20.0" type="qcurve" smooth="yes"/>
      <point x="333.0" y="-20.0"/>
      <point x="25.0" y="238.73214285714286"/>
    </contour>
  </outline>
</glyph>
<glyph name="P" format="2">
  <advance width="1409"/>
  <unicode hex="0050"/>
  <outline>
    <contour>
      <point x="40.0" y="0.0" type="line"/>
      <point x="40.0" y="1456.0" type="line"/>
      <point x="896.0" y="1456.0" type="line" smooth="yes"/>
      <point x="1134.0" y="1456.0"/>
      <point x="1397.0" y="1130.767857142857"/>
      <point x="1397.0" y="865.0714285714286" type="qcurve" smooth="yes"/>
      <point x="1397.0" y="599.375"/>
      <point x="1144.0" y="281.14285714285717"/>
      <point x="883.0" y="281.14285714285717" type="qcurve" smooth="yes"/>
      <point x="640.0" y="281.14285714285717" type="line"/>
      <point x="640.0" y="0.0" type="line"/>
    </contour>
    <contour>
      <point x="640.0" y="692.1428571428571" type="line"/>
      <point x="713.0" y="692.1428571428571" type="line" smooth="yes"/>
      <point x="761.0" y="692.1428571428571"/>
      <point x="799.0" y="783.7678571428571"/>
      <point x="799.0" y="850.0714285714286" type="qcurve" smooth="yes"/>
      <point x="799.0" y="920.375"/>
      <point x="761.0" y="1011.0"/>
      <point x="713.0" y="1011.0" type="qcurve" smooth="yes"/>
      <point x="640.0" y="1011.0" type="line"/>
    </contour>
  </outline>
</glyph>
<glyph name="R" format="2">
  <advance width="1471"/>
  <unicode hex="0052"/>
  <outline>
    <contour>
      <point x="40.0" y="0.0" type="line"/>
      <point x="40.0" y="1456.0" type="line"/>
      <point x="860.0" y="1456.0" type="line" smooth="yes"/>
      <point x="1079.0" y="1456.0"/>
      <point x="1367.0" y="1169.5"/>
      <point x="1367.0" y="942.3571428571429" type="qcurve" smooth="yes"/>
      <point x="1367.0" y="707.9642857142857"/>
      <point x="1049.0" y="397.4642857142857"/>
      <point x="851.0" y="397.4642857142857" type="qcurve" smooth="yes"/>
      <point x="640.0" y="397.4642857142857" type="line"/>
      <point x="640.0" y="0.0" type="line"/>
    </contour>
    <contour>
      <point x="640.0" y="791.0" type="line"/>
      <point x="689.0" y="791.0" type="line" smooth="yes"/>
      <point x="728.0" y="791.0"/>
      <point x="760.0" y="856.8928571428571"/>
      <point x="760.0" y="900.3571428571429" type="qcurve" smooth="yes"/>
      <point x="760.0" y="947.5714285714287"/>
      <point x="728.0" y="1021.4642857142858"/>
      <point x="689.0" y="1021.4642857142858" type="qcurve" smooth="yes"/>
      <point x="640.0" y="1021.4642857142858" type="line"/>
    </contour>
    <contour>
      <point x="864.0" y="0.0" type="line"/>
      <point x="573.0" y="667.0" type="line"/>
      <point x="1163.0" y="667.0" type="line"/>
      <point x="1511.0" y="0.0" type="line"/>
    </contour>
  </outline>
</glyph>
<glyph name="S" format="2">
  <advance width="1249"/>
  <unicode hex="0053"/>
  <outline>
    <contour>
      <point x="-4.0" y="400.39285714285717" type="qcurve" smooth="yes"/>
      <point x="-4.0" y="497.3928571428571" type="line"/>
      <point x="529.0" y="497.3928571428571" type="line"/>
      <point x="529.0" y="462.39285714285717" type="line" smooth="yes"/>
      <point x="528.0" y="419.69642857142856"/>
      <point x="575.0" y="379.7321428571429"/>
      <point x="618.0" y="379.7321428571429" type="qcurve" smooth="yes"/>
      <point x="651.0" y="379.7321428571429"/>
      <point x="691.0" y="397.67857142857144"/>
      <point x="691.0" y="418.0357142857143" type="qcurve" smooth="yes"/>
      <point x="691.0" y="441.07142857142856"/>
      <point x="646.9464285714286" y="474.46428571428567"/>
      <point x="478.7321428571429" y="528.0" type="qcurve" smooth="yes"/>
      <point x="243.33928571428572" y="603.1964285714286"/>
      <point x="4.0" y="806.0"/>
      <point x="4.0" y="997.5714285714287" type="qcurve" smooth="yes"/>
      <point x="4.0" y="1232.0"/>
      <point x="338.0" y="1474.0"/>
      <point x="601.0" y="1474.0" type="qcurve" smooth="yes"/>
      <point x="867.0" y="1474.0"/>
      <point x="1204.0" y="1272.732142857143"/>
      <point x="1204.0" y="1071.607142857143" type="qcurve" smooth="yes"/>
      <point x="1204.0" y="991.6071428571429" type="line"/>
      <point x="681.0" y="991.6071428571429" type="line"/>
      <point x="681.0" y="1014.6071428571429" type="line" smooth="yes"/>
      <point x="681.0" y="1038.107142857143"/>
      <point x="646.0" y="1060.267857142857"/>
      <point x="615.0" y="1060.267857142857" type="qcurve" smooth="yes"/>
      <point x="582.0" y="1060.267857142857"/>
      <point x="555.0" y="1048.25"/>
      <point x="555.0" y="1038.625" type="qcurve" smooth="yes"/>
      <point x="555.0" y="1025.3214285714284"/>
      <point x="601.875" y="1006.5357142857143"/>
      <point x="800.2678571428571" y="952.2678571428571" type="qcurve" smooth="yes"/>
      <point x="1004.7321428571429" y="896.7321428571429"/>
      <point x="1240.0" y="684.5357142857143"/>
      <point x="1240.0" y="474.80357142857144" type="qcurve" smooth="yes"/>
      <point x="1240.0" y="236.0"/>
      <point x="897.0" y="-20.0"/>
      <point x="628.0" y="-20.0" type="qcurve" smooth="yes"/>
      <point x="359.0" y="-20.0"/>
      <point x="-4.0" y="192.96428571428572"/>
    </contour>
  </outline>
</glyph>
<glyph name="V" format="2">
  <advance width="1422"/>
  <unicode hex="0056"/>
  <outline>
    <contour>
      <point x="-60.0" y="1456.0" type="line"/>
      <point x="546.0" y="1456.0" type="line"/>
      <point x="696.2142857142858" y="879.75" type="line" smooth="yes"/>
      <point x="699.2142857142858" y="866.75"/>
      <point x="708.75" y="842.0892857142858"/>
      <point x="713.75" y="824.0892857142858" type="qcurve"/>
      <point x="714.75" y="824.0892857142858" type="line"/>
      <point x="718.9464285714286" y="844.1607142857142"/>
      <point x="725.0714285714286" y="863.5892857142858"/>
      <point x="727.8035714285714" y="873.5892857142858" type="qcurve" smooth="yes"/>
      <point x="864.5357142857143" y="1456.0" type="line"/>
      <point x="1482.0" y="1456.0" type="line"/>
      <point x="1042.0" y="-9.0" type="line"/>
      <point x="380.0" y="-9.0" type="line"/>
    </contour>
  </outline>
</glyph>
<glyph name="X" format="2">
  <advance width="1416"/>
  <unicode hex="0058"/>
  <outline>
    <contour>
      <point x="-40.0" y="0.0" type="line"/>
      <point x="482.0" y="952.0" type="line"/>
      <point x="617.0" y="952.0" type="line"/>
      <point x="879.0" y="1456.0" type="line"/>
      <point x="1438.7857142857142" y="1456.0" type="line"/>
      <point x="947.7857142857143" y="545.0" type="line"/>
      <point x="812.7857142857143" y="545.0" type="line"/>
      <point x="519.7857142857142" y="0.0" type="line"/>
    </contour>
    <contour>
      <point x="-16.535714285714285" y="1456.0" type="line"/>
      <point x="633.4642857142858" y="1456.0" type="line"/>
      <point x="899.4642857142857" y="952.0" type="line"/>
      <point x="918.4821428571429" y="952.0" type="line"/>
      <point x="1436.625" y="0.0" type="line"/>
      <point x="785.625" y="0.0" type="line"/>
      <point x="478.48214285714283" y="573.0" type="line"/>
      <point x="458.4642857142857" y="573.0" type="line"/>
    </contour>
  </outline>
</glyph>
<glyph name="bracketright" format="2">
  <advance width="799"/>
  <unicode hex="005D"/>
  <outline>
    <contour>
      <point x="724.6071428571429" y="-310.0" type="line"/>
      <point x="6.607142857142858" y="-310.0" type="line"/>
      <point x="6.607142857142858" y="111.78571428571428" type="line"/>
      <point x="197.60714285714286" y="111.78571428571428" type="line"/>
      <point x="197.60714285714286" y="1034.2142857142858" type="line"/>
      <point x="6.607142857142858" y="1034.2142857142858" type="line"/>
      <point x="6.607142857142858" y="1456.0" type="line"/>
      <point x="724.6071428571429" y="1456.0" type="line"/>
    </contour>
  </outline>
</glyph>
<glyph name="asciicircum" format="2">
  <advance width="1247"/>
  <unicode hex="005E"/>
  <outline>
    <contour>
      <point x="5.0" y="720.0" type="line"/>
      <point x="410.0" y="1456.0" type="line"/>
      <point x="837.0" y="1456.0" type="line"/>
      <point x="1242.0" y="720.0" type="line"/>
      <point x="758.2142857142857" y="720.0" type="line"/>
      <point x="623.0" y="1026.0" type="line"/>
      <point x="488.7857142857143" y="720.0" type="line"/>
    </contour>
  </outline>
</glyph>
<glyph name="f" format="2">
  <advance width="869"/>
  <unicode hex="0066"/>
  <outline>
    <contour>
      <point x="129.0" y="0.0" type="line"/>
      <point x="129.0" y="1008.2142857142857" type="line" smooth="yes"/>
      <point x="129.0" y="1239.3392857142858"/>
      <point x="447.0" y="1478.0"/>
      <point x="724.0" y="1478.0" type="qcurve" smooth="yes"/>
      <point x="781.0" y="1478.0"/>
      <point x="869.0" y="1467.0"/>
      <point x="921.0" y="1458.0" type="qcurve"/>
      <point x="905.0" y="1029.142857142857" type="line"/>
      <point x="887.0" y="1031.142857142857"/>
      <point x="852.0" y="1036.142857142857"/>
      <point x="820.0" y="1036.142857142857" type="qcurve" smooth="yes"/>
      <point x="757.0" y="1036.142857142857"/>
      <point x="691.0" y="973.6785714285713"/>
      <point x="691.0" y="903.2142857142857" type="qcurve" smooth="yes"/>
      <point x="691.0" y="823.1964285714286" type="line"/>
      <point x="701.0" y="814.1964285714286" type="line"/>
      <point x="701.0" y="0.0" type="line"/>
    </contour>
    <contour>
      <point x="4.0" y="488.3928571428571" type="line"/>
      <point x="4.0" y="914.0" type="line"/>
      <point x="208.0" y="914.0" type="line"/>
      <point x="226.0" y="914.0" type="line"/>
      <point x="859.0" y="914.0" type="line"/>
      <point x="859.0" y="488.3928571428571" type="line"/>
    </contour>
  </outline>
</glyph>
<glyph name="g" format="2">
  <advance width="1291"/>
  <unicode hex="0067"/>
  <outline>
    <contour>
      <point x="53.0" y="-376.0" type="qcurve"/>
      <point x="100.0" y="27.785714285714292" type="line"/>
      <point x="144.0" y="-1.4821428571428612"/>
      <point x="386.0" y="-70.75"/>
      <point x="471.0" y="-70.75" type="qcurve" smooth="yes"/>
      <point x="544.0" y="-70.75"/>
      <point x="706.0" y="-30.160714285714285"/>
      <point x="706.0" y="51.42857142857143" type="qcurve" smooth="yes"/>
      <point x="706.0" y="128.0" type="line"/>
      <point x="661.0" y="65.19642857142857"/>
      <point x="536.0" y="-12.0"/>
      <point x="400.0" y="-12.0" type="qcurve" smooth="yes"/>
      <point x="228.0" y="-12.0"/>
      <point x="10.0" y="242.0"/>
      <point x="10.0" y="442.0" type="qcurve" smooth="yes"/>
      <point x="10.0" y="474.0" type="line" smooth="yes"/>
      <point x="10.0" y="674.0"/>
      <point x="208.0" y="934.0"/>
      <point x="391.0" y="934.0" type="qcurve" smooth="yes"/>
      <point x="488.0" y="934.0"/>
      <point x="651.0" y="854.5357142857143"/>
      <point x="693.0" y="792.0" type="qcurve"/>
      <point x="697.0" y="792.0" type="line"/>
      <point x="697.0" y="914.0" type="line"/>
      <point x="1273.0" y="914.0" type="line"/>
      <point x="1273.0" y="181.42857142857144" type="line" smooth="yes"/>
      <point x="1273.0" y="-123.01785714285714"/>
      <point x="925.0" y="-456.0"/>
      <point x="620.0" y="-456.0" type="qcurve" smooth="yes"/>
      <point x="443.0" y="-456.0"/>
      <point x="151.0" y="-404.4642857142857"/>
    </contour>
    <contour>
      <point x="581.0" y="451.0" type="line" smooth="yes"/>
      <point x="581.0" y="417.39285714285717"/>
      <point x="610.0" y="375.60714285714283"/>
      <point x="641.0" y="375.60714285714283" type="qcurve" smooth="yes"/>
      <point x="662.0" y="375.60714285714283"/>
      <point x="691.0" y="407.60714285714283"/>
      <point x="697.0" y="427.60714285714283" type="qcurve"/>
      <point x="697.0" y="486.3928571428571" type="line"/>
      <point x="691.0" y="506.3928571428571"/>
      <point x="662.0" y="538.3928571428571"/>
      <point x="641.0" y="538.3928571428571" type="qcurve" smooth="yes"/>
      <point x="610.0" y="538.3928571428571"/>
      <point x="581.0" y="494.6071428571429"/>
      <point x="581.0" y="461.0" type="qcurve" smooth="yes"/>
    </contour>
  </outline>
</glyph>
<glyph name="j" format="2">
  <advance width="674"/>
  <unicode hex="006A"/>
  <outline>
    <contour>
      <point x="-216.0" y="-419.0" type="qcurve"/>
      <point x="-229.0" y="10.857142857142861" type="line"/>
      <point x="-208.0" y="7.857142857142861"/>
      <point x="-139.0" y="-7.142857142857139"/>
      <point x="-68.0" y="-7.142857142857139" type="qcurve" smooth="yes"/>
      <point x="13.0" y="-7.142857142857139"/>
      <point x="66.0" y="62.85714285714286"/>
      <point x="66.0" y="180.85714285714286" type="qcurve" smooth="yes"/>
      <point x="66.0" y="914.0" type="line"/>
      <point x="654.0" y="914.0" type="line"/>
      <point x="654.0" y="57.0" type="line" smooth="yes"/>
      <point x="654.0" y="-202.0"/>
      <point x="359.0" y="-440.0"/>
      <point x="60.0" y="-440.0" type="qcurve" smooth="yes"/>
      <point x="-15.0" y="-440.0"/>
      <point x="-171.0" y="-426.2619026737999"/>
    </contour>
    <contour>
      <point x="52.60714285714286" y="1197.25" type="qcurve" smooth="yes"/>
      <point x="52.60714285714286" y="1318.75"/>
      <point x="213.80357142857142" y="1485.6607142857142"/>
      <point x="363.0" y="1485.6607142857142" type="qcurve" smooth="yes"/>
      <point x="511.19642857142856" y="1485.6607142857142"/>
      <point x="668.3928571428571" y="1321.75"/>
      <point x="668.3928571428571" y="1197.25" type="qcurve" smooth="yes"/>
      <point x="668.3928571428571" y="1076.75"/>
      <point x="506.19642857142856" y="904.8392857142857"/>
      <point x="358.0" y="904.8392857142857" type="qcurve" smooth="yes"/>
      <point x="209.80357142857142" y="904.8392857142857"/>
      <point x="52.60714285714286" y="1076.75"/>
    </contour>
  </outline>
</glyph>
<glyph name="k" format="2">
  <advance width="1443"/>
  <unicode hex="006B"/>
  <outline>
    <contour>
      <point x="18.0" y="0.0" type="line"/>
      <point x="18.0" y="1458.0" type="line"/>
      <point x="598.0" y="1458.0" type="line"/>
      <point x="598.0" y="734.5714285714286" type="line"/>
      <point x="720.8571428571429" y="914.0" type="line"/>
      <point x="1404.0" y="914.0" type="line"/>
      <point x="598.0" y="74.41071428571428" type="line"/>
      <point x="598.0" y="0.0" type="line"/>
    </contour>
    <contour>
      <point x="780.5714285714286" y="0.0" type="line"/>
      <point x="553.7678571428571" y="352.5357142857143" type="line"/>
      <point x="908.9285714285714" y="742.8214285714286" type="line"/>
      <point x="1462.0" y="0.0" type="line"/>
    </contour>
  </outline>
</glyph>
<glyph name="m" format="2">
  <advance width="1932"/>
  <unicode hex="006D"/>
  <outline>
    <contour>
      <point x="18.0" y="-1.0" type="line"/>
      <point x="18.0" y="913.0" type="line"/>
      <point x="590.0" y="913.0" type="line"/>
      <point x="590.0" y="779.0" type="line"/>
      <point x="594.0" y="779.0" type="line"/>
      <point x="639.0" y="855.0714285714286"/>
      <point x="805.0" y="940.0"/>
      <point x="923.0" y="940.0" type="qcurve" smooth="yes"/>
      <point x="1030.0" y="940.0"/>
      <point x="1188.0" y="853.1785714285714"/>
      <point x="1217.0" y="771.6428571428571" type="qcurve"/>
      <point x="1220.0" y="771.6428571428571" type="line"/>
      <point x="1278.0" y="851.3928571428571"/>
      <point x="1472.0" y="942.0"/>
      <point x="1593.0" y="942.0" type="qcurve" smooth="yes"/>
      <point x="1743.0" y="942.0"/>
      <point x="1922.0" y="775.8035714285714"/>
      <point x="1922.0" y="580.4642857142858" type="qcurve" smooth="yes"/>
      <point x="1922.0" y="-1.0" type="line"/>
      <point x="1340.0" y="-1.0" type="line"/>
      <point x="1340.0" y="457.46428571428567" type="line" smooth="yes"/>
      <point x="1340.0" y="482.46428571428567"/>
      <point x="1322.0" y="505.46428571428567"/>
      <point x="1305.0" y="505.46428571428567" type="qcurve" smooth="yes"/>
      <point x="1289.0" y="505.46428571428567"/>
      <point x="1265.0" y="478.46428571428567"/>
      <point x="1260.0" y="459.46428571428567" type="qcurve"/>
      <point x="1260.0" y="-1.0" type="line"/>
      <point x="678.0" y="-1.0" type="line"/>
      <point x="678.0" y="457.46428571428567" type="line" smooth="yes"/>
      <point x="678.0" y="482.46428571428567"/>
      <point x="659.0" y="505.46428571428567"/>
      <point x="641.0" y="505.46428571428567" type="qcurve" smooth="yes"/>
      <point x="625.0" y="505.46428571428567"/>
      <point x="602.0" y="477.46428571428567"/>
      <point x="598.0" y="458.46428571428567" type="qcurve"/>
      <point x="598.0" y="-1.0" type="line"/>
    </contour>
  </outline>
</glyph>
<glyph name="p" format="2">
  <advance width="1289"/>
  <unicode hex="0070"/>
  <outline>
    <contour>
      <point x="18.0" y="-416.0" type="line"/>
      <point x="18.0" y="914.0" type="line"/>
      <point x="587.0" y="914.0" type="line"/>
      <point x="587.0" y="823.0" type="line"/>
      <point x="591.0" y="824.0" type="line"/>
      <point x="629.0" y="875.5357142857143"/>
      <point x="774.0" y="945.0"/>
      <point x="877.0" y="945.0" type="qcurve" smooth="yes"/>
      <point x="1057.0" y="945.0"/>
      <point x="1279.0" y="709.0"/>
      <point x="1279.0" y="479.0" type="qcurve" smooth="yes"/>
      <point x="1279.0" y="447.0" type="line" smooth="yes"/>
      <point x="1279.0" y="233.0"/>
      <point x="1045.0" y="-20.0"/>
      <point x="867.0" y="-20.0" type="qcurve" smooth="yes"/>
      <point x="763.0" y="-20.0"/>
      <point x="642.0" y="30.196428571428573"/>
      <point x="595.0" y="72.0" type="qcurve"/>
      <point x="595.0" y="-416.0" type="line"/>
    </contour>
    <contour>
      <point x="595.0" y="426.60714285714283" type="line"/>
      <point x="601.0" y="406.60714285714283"/>
      <point x="629.0" y="375.6071428571429"/>
      <point x="649.0" y="375.6071428571429" type="qcurve" smooth="yes"/>
      <point x="678.0" y="375.6071428571429"/>
      <point x="709.0" y="401.39285714285717"/>
      <point x="709.0" y="422.0" type="qcurve" smooth="yes"/>
      <point x="709.0" y="495.0" type="line" smooth="yes"/>
      <point x="709.0" y="521.6071428571429"/>
      <point x="677.0" y="538.3928571428571"/>
      <point x="653.0" y="538.3928571428571" type="qcurve" smooth="yes"/>
      <point x="628.0" y="538.3928571428571"/>
      <point x="599.0" y="508.3928571428571"/>
      <point x="595.0" y="487.3928571428571" type="qcurve"/>
    </contour>
  </outline>
</glyph>
<glyph name="q" format="2">
  <advance width="1292"/>
  <unicode hex="0071"/>
  <outline>
    <contour>
      <point x="10.0" y="442.0" type="qcurve" smooth="yes"/>
      <point x="10.0" y="474.0" type="line" smooth="yes"/>
      <point x="10.0" y="674.0"/>
      <point x="225.0" y="934.0"/>
      <point x="406.0" y="934.0" type="qcurve" smooth="yes"/>
      <point x="532.0" y="934.0"/>
      <point x="681.0" y="859.5357142857143"/>
      <point x="717.0" y="810.0" type="qcurve"/>
      <point x="717.0" y="810.0" type="line"/>
      <point x="717.0" y="914.0" type="line"/>
      <point x="1274.0" y="914.0" type="line"/>
      <point x="1274.0" y="-418.0" type="line"/>
      <point x="711.0" y="-418.0" type="line"/>
      <point x="711.0" y="133.80357142857144" type="line"/>
      <point x="715.0" y="133.0" type="line"/>
      <point x="669.0" y="69.19642857142857"/>
      <point x="515.0" y="-20.0"/>
      <point x="406.0" y="-20.0" type="qcurve" smooth="yes"/>
      <point x="220.0" y="-20.0"/>
      <point x="10.0" y="242.0"/>
    </contour>
    <contour>
      <point x="581.0" y="451.0" type="line" smooth="yes"/>
      <point x="581.0" y="417.39285714285717"/>
      <point x="610.0" y="375.6071428571429"/>
      <point x="641.0" y="375.6071428571429" type="qcurve" smooth="yes"/>
      <point x="662.0" y="375.6071428571429"/>
      <point x="691.0" y="407.60714285714283"/>
      <point x="697.0" y="427.60714285714283" type="qcurve"/>
      <point x="697.0" y="486.3928571428571" type="line"/>
      <point x="691.0" y="506.3928571428571"/>
      <point x="662.0" y="538.3928571428571"/>
      <point x="641.0" y="538.3928571428571" type="qcurve" smooth="yes"/>
      <point x="610.0" y="538.3928571428571"/>
      <point x="581.0" y="494.6071428571429"/>
      <point x="581.0" y="461.0" type="qcurve" smooth="yes"/>
    </contour>
  </outline>
</glyph>
<glyph name="s" format="2">
  <advance width="1173"/>
  <unicode hex="0073"/>
  <outline>
    <contour>
      <point x="0.0" y="320.0357142857143" type="line"/>
      <point x="494.0" y="312.0357142857143" type="line"/>
      <point x="494.0" y="295.0357142857143" type="line" smooth="yes"/>
      <point x="494.0" y="272.80357142857144"/>
      <point x="538.0" y="266.57142857142856"/>
      <point x="572.0" y="266.57142857142856" type="qcurve" smooth="yes"/>
      <point x="611.0" y="266.57142857142856"/>
      <point x="638.1964285714286" y="271.3928571428571"/>
      <point x="638.1964285714286" y="277.0357142857143" type="qcurve" smooth="yes"/>
      <point x="638.1964285714286" y="283.67857142857144"/>
      <point x="614.0" y="287.625"/>
      <point x="434.0" y="307.26785714285717" type="qcurve" smooth="yes"/>
      <point x="191.0" y="335.9107142857143"/>
      <point x="18.48214285714286" y="492.28571428571433"/>
      <point x="18.48214285714286" y="623.2857142857143" type="qcurve" smooth="yes"/>
      <point x="18.48214285714286" y="761.8392857142857"/>
      <point x="341.67857142857144" y="951.0"/>
      <point x="590.6785714285714" y="951.0" type="qcurve" smooth="yes"/>
      <point x="838.6785714285714" y="951.0"/>
      <point x="1143.6785714285716" y="753.5"/>
      <point x="1143.6785714285716" y="617.625" type="qcurve" smooth="yes"/>
      <point x="1143.6785714285716" y="594.625" type="line"/>
      <point x="651.6785714285714" y="594.625" type="line"/>
      <point x="651.6785714285714" y="615.5535714285714" type="line" smooth="yes"/>
      <point x="651.6785714285714" y="628.6607142857143"/>
      <point x="612.6785714285714" y="635.4285714285714"/>
      <point x="573.6785714285714" y="635.4285714285714" type="qcurve" smooth="yes"/>
      <point x="533.6785714285714" y="635.4285714285714"/>
      <point x="511.48214285714283" y="636.6071428571429"/>
      <point x="510.48214285714283" y="624.9642857142857" type="qcurve" smooth="yes"/>
      <point x="509.48214285714283" y="615.3214285714286"/>
      <point x="553.0" y="612.3571428571429"/>
      <point x="724.0" y="599.7142857142857" type="qcurve" smooth="yes"/>
      <point x="956.0" y="581.0714285714286"/>
      <point x="1173.0" y="436.7142857142857"/>
      <point x="1173.0" y="300.7142857142857" type="qcurve" smooth="yes"/>
      <point x="1173.0" y="160.16071428571428"/>
      <point x="880.0" y="-27.0"/>
      <point x="588.0" y="-27.0" type="qcurve" smooth="yes"/>
      <point x="296.0" y="-27.0"/>
      <point x="11.0" y="163.55357142857142"/>
      <point x="1.0" y="305.0357142857143" type="qcurve" smooth="yes"/>
    </contour>
  </outline>
</glyph>
<glyph name="v" format="2">
  <advance width="1265"/>
  <unicode hex="0076"/>
  <outline>
    <contour>
      <point x="-10.0" y="914.0" type="line"/>
      <point x="541.0" y="914.0" type="line"/>
      <point x="626.3571428571429" y="636.7857142857142" type="line" smooth="yes"/>
      <point x="629.3571428571429" y="626.7857142857142"/>
      <point x="635.4821428571429" y="612.1785714285714"/>
      <point x="638.2857142857142" y="604.5357142857142" type="qcurve"/>
      <point x="639.2857142857142" y="604.5357142857142" type="line"/>
      <point x="641.8214285714286" y="613.25"/>
      <point x="647.9464285714286" y="630.0"/>
      <point x="649.6071428571429" y="636.7857142857142" type="qcurve" smooth="yes"/>
      <point x="743.8214285714286" y="914.0" type="line"/>
      <point x="1275.0" y="914.0" type="line"/>
      <point x="916.0" y="0.0" type="line"/>
      <point x="359.0" y="0.0" type="line"/>
    </contour>
  </outline>
</glyph>
<glyph name="w" format="2">
  <advance width="1918"/>
  <unicode hex="0077"/>
  <outline>
    <contour>
      <point x="-10.0" y="914.0" type="line"/>
      <point x="530.0" y="914.0" type="line"/>
      <point x="610.0" y="651.7857142857142" type="line" smooth="yes"/>
      <point x="619.0" y="620.7857142857142"/>
      <point x="628.0" y="590.7857142857142"/>
      <point x="635.0" y="559.7857142857142" type="qcurve"/>
      <point x="638.0" y="559.7857142857142" type="line"/>
      <point x="648.0" y="590.7857142857142"/>
      <point x="655.0" y="620.7857142857142"/>
      <point x="663.0" y="651.7857142857142" type="qcurve" smooth="yes"/>
      <point x="740.0" y="914.0" type="line"/>
      <point x="1225.0" y="914.0" type="line"/>
      <point x="1304.0" y="642.7857142857142" type="line" smooth="yes"/>
      <point x="1312.0" y="613.7857142857142"/>
      <point x="1320.0" y="585.7857142857142"/>
      <point x="1327.0" y="556.7857142857142" type="qcurve"/>
      <point x="1333.0" y="556.7857142857142" type="line"/>
      <point x="1339.0" y="585.7857142857142"/>
      <point x="1347.0" y="613.7857142857142"/>
      <point x="1355.0" y="642.7857142857142" type="qcurve" smooth="yes"/>
      <point x="1432.0" y="914.0" type="line"/>
      <point x="1928.0" y="914.0" type="line"/>
      <point x="1643.0" y="0.0" type="line"/>
      <point x="1072.0" y="0.0" type="line"/>
      <point x="978.0" y="257.69642857142856" type="line" smooth="yes"/>
      <point x="972.0" y="276.69642857142856"/>
      <point x="965.0" y="306.69642857142856"/>
      <point x="958.0" y="325.69642857142856" type="qcurve"/>
      <point x="955.0" y="325.69642857142856" type="line"/>
      <point x="949.0" y="306.69642857142856"/>
      <point x="943.0" y="276.69642857142856"/>
      <point x="937.0" y="257.69642857142856" type="qcurve" smooth="yes"/>
      <point x="851.0" y="0.0" type="line"/>
      <point x="272.0" y="0.0" type="line"/>
    </contour>
  </outline>
</glyph>
<glyph name="z" format="2">
  <advance width="1091"/>
  <unicode hex="007A"/>
  <outline>
    <contour>
      <point x="15.0" y="0.0" type="line"/>
      <point x="15.0" y="315.5357142857143" type="line"/>
      <point x="320.0" y="488.3928571428571" type="line"/>
      <point x="34.0" y="488.3928571428571" type="line"/>
      <point x="34.0" y="914.0" type="line"/>
      <point x="1038.0" y="914.0" type="line"/>
      <point x="1038.0" y="577.6607142857143" type="line"/>
      <point x="734.0" y="405.60714285714283" type="line"/>
      <point x="1076.0" y="405.60714285714283" type="line"/>
      <point x="1076.0" y="0.0" type="line"/>
    </contour>
  </outline>
</glyph>
<glyph name="braceleft" format="2">
  <advance width="905"/>
  <unicode hex="007B"/>
  <outline>
    <contour>
      <point x="885.0" y="-312.0" type="line"/>
      <point x="386.0" y="-332.0"/>
      <point x="120.0" y="-100.35714285714286"/>
      <point x="171.0" y="103.0" type="qcurve" smooth="yes"/>
      <point x="218.0" y="273.2857142857143" type="line" smooth="yes"/>
      <point x="231.0" y="324.01785714285717"/>
      <point x="130.0" y="349.2857142857143"/>
      <point x="32.0" y="349.2857142857143" type="qcurve"/>
      <point x="32.0" y="798.7142857142857" type="line"/>
      <point x="130.0" y="798.7142857142857"/>
      <point x="231.0" y="823.9821428571429"/>
      <point x="218.0" y="874.7142857142857" type="qcurve" smooth="yes"/>
      <point x="171.0" y="1045.0" type="line" smooth="yes"/>
      <point x="122.0" y="1239.357142857143"/>
      <point x="386.0" y="1470.0"/>
      <point x="885.0" y="1460.0" type="qcurve"/>
      <point x="885.0" y="1042.8214285714287" type="line"/>
      <point x="771.0" y="1042.8214285714287"/>
      <point x="664.0" y="1010.6607142857142"/>
      <point x="679.0" y="964.2857142857142" type="qcurve" smooth="yes"/>
      <point x="726.0" y="814.0" type="line" smooth="yes"/>
      <point x="750.0" y="729.7321428571429"/>
      <point x="671.0" y="605.0"/>
      <point x="572.0" y="574.0" type="qcurve"/>
      <point x="671.0" y="543.0"/>
      <point x="750.0" y="418.26785714285717"/>
      <point x="726.0" y="334.0" type="qcurve" smooth="yes"/>
      <point x="679.0" y="183.71428571428572" type="line" smooth="yes"/>
      <point x="664.0" y="137.33928571428572"/>
      <point x="771.0" y="105.17857142857143"/>
      <point x="885.0" y="105.17857142857143" type="qcurve"/>
    </contour>
  </outline>
</glyph>
<glyph name="braceright" format="2">
  <advance width="905"/>
  <unicode hex="007D"/>
  <outline>
    <contour>
      <point x="20.0" y="-314.0" type="qcurve"/>
      <point x="20.0" y="103.17857142857143" type="line"/>
      <point x="134.0" y="103.17857142857143"/>
      <point x="241.0" y="135.33928571428572"/>
      <point x="226.0" y="181.71428571428572" type="qcurve" smooth="yes"/>
      <point x="179.0" y="332.0" type="line" smooth="yes"/>
      <point x="155.0" y="416.26785714285717"/>
      <point x="234.0" y="541.0"/>
      <point x="333.0" y="572.0" type="qcurve"/>
      <point x="234.0" y="603.0"/>
      <point x="155.0" y="727.7321428571429"/>
      <point x="179.0" y="812.0" type="qcurve" smooth="yes"/>
      <point x="226.0" y="962.2857142857142" type="line" smooth="yes"/>
      <point x="241.0" y="1008.6607142857142"/>
      <point x="134.0" y="1040.8214285714287"/>
      <point x="20.0" y="1040.8214285714287" type="qcurve"/>
      <point x="20.0" y="1458.0" type="line"/>
      <point x="519.0" y="1478.0"/>
      <point x="785.0" y="1246.357142857143"/>
      <point x="734.0" y="1043.0" type="qcurve" smooth="yes"/>
      <point x="687.0" y="872.7142857142857" type="line" smooth="yes"/>
      <point x="674.0" y="821.9821428571429"/>
      <point x="775.0" y="796.7142857142857"/>
      <point x="873.0" y="796.7142857142857" type="qcurve"/>
      <point x="873.0" y="347.2857142857143" type="line"/>
      <point x="775.0" y="347.2857142857143"/>
      <point x="674.0" y="322.01785714285717"/>
      <point x="687.0" y="271.2857142857143" type="qcurve" smooth="yes"/>
      <point x="734.0" y="101.0" type="line" smooth="yes"/>
      <point x="783.0" y="-93.35714285714286"/>
      <point x="519.0" y="-324.0"/>
    </contour>
  </outline>
</glyph>
<glyph name="twosuperior" format="2">
  <advance width="766"/>
  <unicode hex="00B2"/>
  <outline>
    <contour>
      <point x="18.0" y="697.0" type="line"/>
      <point x="18.0" y="915.0" type="line"/>
      <point x="316.0" y="1144.0" type="line" smooth="yes"/>
      <point x="358.0" y="1176.0"/>
      <point x="381.0" y="1207.3214285714287"/>
      <point x="381.0" y="1217.232142857143" type="qcurve" smooth="yes"/>
      <point x="381.0" y="1221.607142857143"/>
      <point x="369.0" y="1231.9285714285713"/>
      <point x="355.0" y="1231.9285714285713" type="qcurve" smooth="yes"/>
      <point x="333.0" y="1231.9285714285713"/>
      <point x="313.0" y="1204.9642857142858"/>
      <point x="313.0" y="1158.0" type="qcurve"/>
      <point x="10.0" y="1158.0" type="line"/>
      <point x="7.0" y="1338.0"/>
      <point x="187.0" y="1487.0"/>
      <point x="386.0" y="1487.0" type="qcurve" smooth="yes"/>
      <point x="593.0" y="1487.0"/>
      <point x="745.0" y="1359.0"/>
      <point x="745.0" y="1261.0" type="qcurve" smooth="yes"/>
      <point x="745.0" y="1181.0"/>
      <point x="643.6607142857142" y="1044.607142857143"/>
      <point x="587.0" y="998.0" type="qcurve" smooth="yes"/>
      <point x="552.1607142857142" y="970.0714285714286" type="line"/>
      <point x="756.0" y="969.5357142857143" type="line"/>
      <point x="756.0" y="697.0" type="line"/>
    </contour>
  </outline>
</glyph>
<glyph name="multiply" format="2">
  <advance width="1024"/>
  <unicode hex="00D7"/>
  <outline>
    <contour>
      <point x="219.19642857142856" y="238.07142857142858" type="line"/>
      <point x="84.41071428571429" y="376.85714285714283" type="line"/>
      <point x="793.4821428571429" y="1104.0" type="line"/>
      <point x="928.2678571428571" y="964.2142857142857" type="line"/>
    </contour>
    <contour>
      <point x="812.0" y="237.0" type="line"/>
      <point x="85.0" y="980.0" type="line"/>
      <point x="204.0" y="1104.0" type="line"/>
      <point x="931.0" y="360.0" type="line"/>
    </contour>
  </outline>
</glyph>
<glyph name="apostrophemod" format="2">
  <advance width="600"/>
  <unicode hex="02BC"/>
  <outline>
    <contour>
      <point x="137.85714285714286" y="1080.482142857143" type="line"/>
      <point x="177.85714285714286" y="1110.482142857143"/>
      <point x="282.125" y="1212.4107142857142"/>
      <point x="297.125" y="1279.4107142857142" type="qcurve"/>
      <point x="236.57142857142858" y="1282.357142857143"/>
      <point x="163.0" y="1352.0"/>
      <point x="163.0" y="1411.0" type="qcurve" smooth="yes"/>
      <point x="163.0" y="1469.0"/>
      <point x="244.0" y="1546.0"/>
      <point x="307.0" y="1546.0" type="qcurve" smooth="yes"/>
      <point x="366.0" y="1546.0"/>
      <point x="462.0" y="1450.0"/>
      <point x="462.0" y="1373.0" type="qcurve" smooth="yes"/>
      <point x="462.0" y="1251.0"/>
      <point x="303.0" y="1063.0"/>
      <point x="198.0" y="1013.0" type="qcurve"/>
    </contour>
  </outline>
</glyph>
<glyph name="ogonek" format="2">
  <advance width="1024"/>
  <unicode hex="02DB"/>
  <outline>
    <contour>
      <point x="533.0" y="57.0" type="qcurve"/>
      <point x="607.0" y="0.0" type="line"/>
      <point x="543.0" y="-47.732142857142854"/>
      <point x="436.0" y="-153.78571428571428"/>
      <point x="436.0" y="-209.94642857142858" type="qcurve" smooth="yes"/>
      <point x="436.0" y="-241.07142857142858"/>
      <point x="471.0" y="-278.92857142857144"/>
      <point x="514.0" y="-278.92857142857144" type="qcurve" smooth="yes"/>
      <point x="547.0" y="-278.92857142857144"/>
      <point x="599.0" y="-261.0"/>
      <point x="614.0" y="-253.26785714285714" type="qcurve"/>
      <point x="628.0" y="-390.0" type="line"/>
      <point x="603.0" y="-405.0"/>
      <point x="526.0" y="-434.0"/>
      <point x="467.0" y="-434.0" type="qcurve" smooth="yes"/>
      <point x="386.0" y="-434.0"/>
      <point x="275.0" y="-336.0"/>
      <point x="275.0" y="-243.0" type="qcurve" smooth="yes"/>
      <point x="275.0" y="-163.0"/>
      <point x="397.0" y="-6.0"/>
    </contour>
  </outline>
</glyph>
<glyph name="hookabovecomb" format="2">
  <advance width="1024"/>
  <unicode hex="0309"/>
  <outline>
    <contour>
      <point x="454.0" y="1147.0" type="line"/>
      <point x="453.4642857142857" y="1191.357142857143" type="line" smooth="yes"/>
      <point x="452.92857142857144" y="1243.357142857143"/>
      <point x="513.0" y="1313.357142857143"/>
      <point x="589.0" y="1324.357142857143" type="qcurve" smooth="yes"/>
      <point x="645.0" y="1332.357142857143"/>
      <point x="685.0" y="1359.0"/>
      <point x="685.0" y="1394.9107142857142" type="qcurve" smooth="yes"/>
      <point x="685.0" y="1428.2857142857142"/>
      <point x="626.0" y="1461.607142857143"/>
      <point x="572.0" y="1461.607142857143" type="qcurve" smooth="yes"/>
      <point x="508.0" y="1461.607142857143"/>
      <point x="396.80357142857144" y="1433.4285714285713"/>
      <point x="386.0" y="1425.9642857142858" type="qcurve"/>
      <point x="332.0" y="1559.0" type="line"/>
      <point x="367.0" y="1578.0"/>
      <point x="521.0" y="1619.0"/>
      <point x="603.0" y="1619.0" type="qcurve" smooth="yes"/>
      <point x="723.0" y="1619.0"/>
      <point x="848.0" y="1505.0"/>
      <point x="848.0" y="1409.0" type="qcurve" smooth="yes"/>
      <point x="848.0" y="1308.0"/>
      <point x="720.0" y="1183.642857142857"/>
      <point x="577.0" y="1172.642857142857" type="qcurve"/>
      <point x="577.0" y="1147.0" type="line"/>
    </contour>
  </outline>
</glyph>
<glyph name="breveinvertedcomb" format="2">
  <advance width="1024"/>
  <unicode hex="030F"/>
  <outline>
    <contour>
      <point x="279.76785714285717" y="1194.7857142857142" type="qcurve"/>
      <point x="168.42857142857142" y="1256.5535714285716" type="line"/>
      <point x="205.83928571428572" y="1356.892857142857"/>
      <point x="387.0" y="1518.0"/>
      <point x="513.0" y="1518.0" type="qcurve" smooth="yes"/>
      <point x="626.0" y="1518.0"/>
      <point x="813.4285714285714" y="1368.75"/>
      <point x="856.5" y="1254.75" type="qcurve"/>
      <point x="738.8392857142857" y="1193.982142857143" type="line"/>
      <point x="703.8392857142857" y="1252.3214285714284"/>
      <point x="591.0" y="1354.0"/>
      <point x="512.0" y="1354.0" type="qcurve" smooth="yes"/>
      <point x="428.0" y="1354.0"/>
      <point x="314.9642857142857" y="1256.0535714285716"/>
    </contour>
  </outline>
</glyph>
<glyph name="horizontalbar" format="2">
  <advance width="656"/>
  <unicode hex="2015"/>
  <outline>
    <contour>
      <point x="20.0" y="612.6071428571429" type="line"/>
      <point x="20.0" y="805.3928571428571" type="line"/>
      <point x="625.0" y="805.3928571428571" type="line"/>
      <point x="625.0" y="612.6071428571429" type="line"/>
    </contour>
  </outline>
</glyph>
<glyph name="quotesinglbase" format="2">
  <advance width="410"/>
  <unicode hex="201A"/>
  <outline>
    <contour>
      <point x="318.0" y="220.0" type="line"/>
      <point x="318.0" y="92.0" type="line" smooth="yes"/>
      <point x="318.0" y="2.0"/>
      <point x="227.0" y="-202.0"/>
      <point x="145.0" y="-270.0" type="qcurve"/>
      <point x="30.160714285714285" y="-190.03571428571428" type="line"/>
      <point x="77.69642857142857" y="-128.32142857142858"/>
      <point x="134.0" y="8.0"/>
      <point x="134.0" y="89.0" type="qcurve" smooth="yes"/>
      <point x="134.0" y="220.0" type="line"/>
    </contour>
  </outline>
</glyph>
<glyph name="quotedblleft" format="2">
  <advance width="830"/>
  <unicode hex="201C"/>
  <outline>
    <contour>
      <point x="92.0" y="1073.0" type="line"/>
      <point x="92.0" y="1194.0" type="line" smooth="yes"/>
      <point x="92.0" y="1284.0"/>
      <point x="183.0" y="1488.0"/>
      <point x="266.0" y="1556.0" type="qcurve"/>
      <point x="379.0357142857143" y="1476.5714285714287" type="line"/>
      <point x="329.2857142857143" y="1414.0535714285713"/>
      <point x="275.0" y="1278.0"/>
      <point x="275.0" y="1197.0" type="qcurve" smooth="yes"/>
      <point x="275.0" y="1073.0" type="line"/>
    </contour>
    <contour>
      <point x="512.0" y="1073.0" type="line"/>
      <point x="512.0" y="1194.0" type="line" smooth="yes"/>
      <point x="512.0" y="1284.0"/>
      <point x="603.0" y="1488.0"/>
      <point x="686.0" y="1556.0" type="qcurve"/>
      <point x="799.0357142857143" y="1476.5714285714287" type="line"/>
      <point x="750.0892857142857" y="1413.7857142857142"/>
      <point x="695.0" y="1278.0"/>
      <point x="695.0" y="1197.0" type="qcurve" smooth="yes"/>
      <point x="695.0" y="1073.0" type="line"/>
    </contour>
  </outline>
</glyph>
<glyph name="quotedblright" format="2">
  <advance width="830"/>
  <unicode hex="201D"/>
  <outline>
    <contour>
      <point x="318.0" y="1458.0" type="line"/>
      <point x="318.0" y="1330.0" type="line" smooth="yes"/>
      <point x="318.0" y="1240.0"/>
      <point x="227.0" y="1036.0"/>
      <point x="145.0" y="968.0" type="qcurve"/>
      <point x="30.69642857142857" y="1048.232142857143" type="line"/>
      <point x="79.30357142857143" y="1112.357142857143"/>
      <point x="134.0" y="1246.0"/>
      <point x="134.0" y="1327.0" type="qcurve" smooth="yes"/>
      <point x="134.0" y="1458.0" type="line"/>
    </contour>
    <contour>
      <point x="738.0" y="1458.0" type="line"/>
      <point x="738.0" y="1330.0" type="line" smooth="yes"/>
      <point x="738.0" y="1240.0"/>
      <point x="647.0" y="1036.0"/>
      <point x="565.0" y="968.0" type="qcurve"/>
      <point x="450.9642857142857" y="1048.232142857143" type="line"/>
      <point x="498.5" y="1111.017857142857"/>
      <point x="554.0" y="1246.0"/>
      <point x="554.0" y="1327.0" type="qcurve" smooth="yes"/>
      <point x="554.0" y="1458.0" type="line"/>
    </contour>
  </outline>
</glyph>
<glyph name="minute" format="2">
  <advance width="654"/>
  <unicode hex="2032"/>
  <outline>
    <contour>
      <point x="91.69642857142857" y="969.0892857142857" type="line"/>
      <point x="395.0" y="1559.0" type="line"/>
      <point x="588.0" y="1452.0" type="line"/>
      <point x="238.5" y="880.25" type="line"/>
    </contour>
  </outline>
</glyph>
<glyph name="second" format="2">
  <advance width="1054"/>
  <unicode hex="2033"/>
  <outline>
    <contour>
      <point x="100.0" y="964.0" type="line"/>
      <point x="395.0" y="1559.0" type="line"/>
      <point x="588.0" y="1452.0" type="line"/>
      <point x="244.66071428571428" y="877.0357142857143" type="line"/>
    </contour>
    <contour>
      <point x="499.73214285714283" y="964.0" type="line"/>
      <point x="794.7321428571429" y="1559.0" type="line"/>
      <point x="987.7321428571429" y="1452.0" type="line"/>
      <point x="643.8571428571429" y="877.0357142857143" type="line"/>
    </contour>
  </outline>
</glyph>
<glyph name="naira" format="2">
  <advance width="1024"/>
  <unicode hex="20A6"/>
  <outline>
    <contour>
      <point x="-21.0" y="833.9285714285714" type="line"/>
      <point x="-21.0" y="997.7142857142857" type="line"/>
      <point x="161.0" y="997.7142857142857" type="line"/>
      <point x="161.0" y="987.7142857142857" type="line"/>
      <point x="827.0" y="987.7142857142857" type="line"/>
      <point x="827.0" y="997.7142857142857" type="line"/>
      <point x="1019.0" y="999.7142857142857" type="line"/>
      <point x="1019.0" y="835.9285714285714" type="line"/>
      <point x="827.0" y="833.9285714285714" type="line"/>
      <point x="827.0" y="838.9285714285714" type="line"/>
      <point x="161.0" y="838.9285714285714" type="line"/>
      <point x="161.0" y="833.9285714285714" type="line"/>
    </contour>
    <contour>
      <point x="-21.0" y="513.2142857142857" type="line"/>
      <point x="-21.0" y="677.0" type="line"/>
      <point x="161.0" y="677.0" type="line"/>
      <point x="161.0" y="672.0" type="line"/>
      <point x="827.0" y="672.0" type="line"/>
      <point x="827.0" y="677.0" type="line"/>
      <point x="1019.0" y="679.0" type="line"/>
      <point x="1019.0" y="515.2142857142857" type="line"/>
      <point x="827.0" y="513.2142857142857" type="line"/>
      <point x="827.0" y="523.2142857142857" type="line"/>
      <point x="161.0" y="523.2142857142857" type="line"/>
      <point x="161.0" y="513.2142857142857" type="line"/>
    </contour>
    <contour>
      <point x="916.7142857142857" y="1456.0" type="line"/>
      <point x="916.7142857142857" y="0.0" type="line"/>
      <point x="725.0" y="0.0" type="line"/>
      <point x="273.82142857142856" y="1091.9107142857142" type="line"/>
      <point x="251.82142857142856" y="1202.9107142857142" type="line"/>
      <point x="239.82142857142856" y="1202.9107142857142" type="line"/>
      <point x="251.75" y="1077.857142857143" type="line"/>
      <point x="251.75" y="0.0" type="line"/>
      <point x="74.96428571428572" y="0.0" type="line"/>
      <point x="74.96428571428572" y="1456.0" type="line"/>
      <point x="269.0" y="1456.0" type="line"/>
      <point x="709.3392857142857" y="382.8928571428571" type="line"/>
      <point x="738.3392857142857" y="262.8928571428571" type="line"/>
      <point x="752.3392857142857" y="265.8928571428571" type="line"/>
      <point x="739.9285714285714" y="386.625" type="line"/>
      <point x="739.9285714285714" y="1456.0" type="line"/>
    </contour>
  </outline>
</glyph>
<glyph name="greaterequal" format="2">
  <advance width="1024"/>
  <unicode hex="2265"/>
  <outline>
    <contour>
      <point x="111.0" y="253.0" type="line"/>
      <point x="111.0" y="472.07142857142856" type="line"/>
      <point x="678.1785714285714" y="686.7678571428571" type="line"/>
      <point x="111.0" y="902.0" type="line"/>
      <point x="111.0" y="1095.0" type="line"/>
      <point x="929.0" y="746.0" type="line"/>
      <point x="929.0" y="602.0" type="line"/>
    </contour>
    <contour>
      <point x="972.0" y="-7.035714285714285" type="line"/>
      <point x="62.0" y="-7.035714285714285" type="line"/>
      <point x="62.0" y="188.75" type="line"/>
      <point x="972.0" y="188.75" type="line"/>
    </contour>
  </outline>
</glyph>
<glyph name="diagonalbarL" format="2">
  <advance width="741"/>
  <outline>
    <contour>
      <point x="88.30357142857143" y="429.125" type="line"/>
      <point x="-7.767857142857139" y="597.9285714285714" type="line"/>
      <point x="656.2321428571429" y="1008.9285714285714" type="line"/>
      <point x="753.3035714285714" y="843.125" type="line"/>
    </contour>
  </outline>
</glyph>
<glyph name="diagonalbarl" format="2">
  <advance width="629"/>
  <outline>
    <contour>
      <point x="96.32142857142858" y="452.125" type="line"/>
      <point x="-6.696428571428569" y="623.1071428571429" type="line"/>
      <point x="268.30357142857144" y="816.1071428571429" type="line"/>
      <point x="533.3035714285714" y="1035.107142857143" type="line"/>
      <point x="632.3214285714286" y="867.125" type="line"/>
      <point x="362.32142857142856" y="673.125" type="line"/>
    </contour>
  </outline>
</glyph>
<glyph name="dollar.rvrn" format="2">
  <advance width="1249"/>
  <outline>
    <contour>
      <point x="-4.0" y="386.73214285714283" type="qcurve" smooth="yes"/>
      <point x="-4.0" y="484.0" type="line"/>
      <point x="529.0" y="484.0" type="line"/>
      <point x="529.0" y="448.19642857142856" type="line" smooth="yes"/>
      <point x="528.0" y="406.83928571428567"/>
      <point x="580.8928571428571" y="381.3392857142857"/>
      <point x="619.3392857142857" y="381.3392857142857" type="qcurve" smooth="yes"/>
      <point x="654.75" y="381.3392857142857"/>
      <point x="691.0" y="387.23214285714283"/>
      <point x="691.0" y="410.0" type="qcurve" smooth="yes"/>
      <point x="691.0" y="435.9821428571429"/>
      <point x="656.3214285714286" y="450.3571428571429"/>
      <point x="485.96428571428567" y="507.1071428571429" type="qcurve" smooth="yes"/>
      <point x="253.25" y="583.9107142857143"/>
      <point x="4.267857142857139" y="797.9642857142857"/>
      <point x="4.267857142857139" y="1004.0" type="qcurve" smooth="yes"/>
      <point x="4.267857142857139" y="1240.5714285714287"/>
      <point x="342.01785714285717" y="1474.0"/>
      <point x="601.5357142857143" y="1474.0" type="qcurve" smooth="yes"/>
      <point x="866.7321428571429" y="1474.0"/>
      <point x="1205.0714285714287" y="1274.3392857142858"/>
      <point x="1205.0714285714287" y="1085.267857142857" type="qcurve" smooth="yes"/>
      <point x="1205.0714285714287" y="1005.0" type="line"/>
      <point x="680.1964285714286" y="1005.0" type="line"/>
      <point x="680.1964285714286" y="1028.267857142857" type="line" smooth="yes"/>
      <point x="680.1964285714286" y="1054.1785714285713"/>
      <point x="649.4821428571429" y="1062.6785714285713"/>
      <point x="617.1428571428571" y="1062.6785714285713" type="qcurve" smooth="yes"/>
      <point x="582.5357142857143" y="1062.6785714285713"/>
      <point x="559.5535714285714" y="1058.6964285714287"/>
      <point x="559.5535714285714" y="1048.0" type="qcurve" smooth="yes"/>
      <point x="559.5535714285714" y="1030.6785714285716"/>
      <point x="609.375" y="1027.6964285714284"/>
      <point x="803.2142857142857" y="971.0178571428571" type="qcurve" smooth="yes"/>
      <point x="1013.3035714285713" y="909.0535714285714"/>
      <point x="1239.732142857143" y="689.3571428571429"/>
      <point x="1239.732142857143" y="474.0" type="qcurve" smooth="yes"/>
      <point x="1239.732142857143" y="232.25"/>
      <point x="897.0" y="-19.196428571428573"/>
      <point x="627.7321428571429" y="-19.196428571428573" type="qcurve" smooth="yes"/>
      <point x="359.26785714285717" y="-19.196428571428573"/>
      <point x="-4.0" y="183.05357142857142"/>
    </contour>
    <contour>
      <point x="385.46428571428567" y="-145.64285714285714" type="line"/>
      <point x="385.46428571428567" y="233.35714285714286" type="line"/>
      <point x="850.5357142857143" y="233.35714285714286" type="line"/>
      <point x="850.5357142857143" y="104.35714285714286" type="line"/>
      <point x="859.4642857142857" y="94.35714285714286" type="line"/>
      <point x="859.4642857142857" y="-145.64285714285714" type="line"/>
    </contour>
    <contour>
      <point x="394.92857142857144" y="1233.357142857143" type="line"/>
      <point x="394.92857142857144" y="1347.9642857142858" type="line"/>
      <point x="386.0" y="1357.9642857142858" type="line"/>
      <point x="386.0" y="1611.357142857143" type="line"/>
      <point x="860.0" y="1611.357142857143" type="line"/>
      <point x="860.0" y="1233.357142857143" type="line"/>
    </contour>
  </outline>
</glyph>
<glyph name="horizontalbarH" format="2">
  <advance width="1458"/>
  <outline>
    <contour>
      <point x="1442.0" y="1013.6071428571429" type="line"/>
      <point x="1220.0" y="1011.6071428571429" type="line"/>
      <point x="1220.0" y="1175.392857142857" type="line"/>
      <point x="1452.0" y="1177.392857142857" type="line"/>
    </contour>
    <contour>
      <point x="15.0" y="1011.6071428571429" type="line"/>
      <point x="6.0" y="1175.392857142857" type="line"/>
      <point x="245.0" y="1175.392857142857" type="line"/>
      <point x="245.0" y="1011.6071428571429" type="line"/>
    </contour>
    <contour>
      <point x="245.0" y="1021.6071428571429" type="line"/>
      <point x="245.0" y="1165.392857142857" type="line"/>
      <point x="1220.0" y="1165.392857142857" type="line"/>
      <point x="1220.0" y="1021.6071428571429" type="line"/>
    </contour>
  </outline>
</glyph>
<glyph name="horncomb.case" format="2">
  <advance width="1024"/>
  <outline>
    <contour>
      <point x="382.0" y="1523.3214285714287" type="line"/>
      <point x="455.0" y="1523.3214285714287" type="line" smooth="yes"/>
      <point x="518.0" y="1523.3214285714287"/>
      <point x="593.0" y="1554.3214285714287"/>
      <point x="593.0" y="1611.3214285714287" type="qcurve" smooth="yes"/>
      <point x="593.0" y="1652.3214285714287"/>
      <point x="582.0" y="1725.3214285714287"/>
      <point x="573.0" y="1761.3214285714287" type="qcurve"/>
      <point x="718.3571428571429" y="1761.3214285714287" type="line"/>
      <point x="735.3571428571429" y="1730.3214285714287"/>
      <point x="769.3571428571429" y="1620.3214285714287"/>
      <point x="769.3571428571429" y="1561.3214285714287" type="qcurve" smooth="yes"/>
      <point x="769.3571428571429" y="1473.3214285714287"/>
      <point x="626.0" y="1384.5714285714287"/>
      <point x="530.0" y="1384.5714285714287" type="qcurve" smooth="yes"/>
      <point x="484.0" y="1384.5714285714287"/>
      <point x="408.0" y="1397.107142857143"/>
      <point x="382.0" y="1406.642857142857" type="qcurve"/>
    </contour>
  </outline>
</glyph>
<glyph name="jdotless" format="2">
  <advance width="674"/>
  <outline>
    <contour>
      <point x="-216.0" y="-419.0" type="qcurve"/>
      <point x="-229.0" y="-17.0" type="line"/>
      <point x="-208.0" y="-20.0"/>
      <point x="-139.0" y="-35.0"/>
      <point x="-68.0" y="-35.0" type="qcurve" smooth="yes"/>
      <point x="13.0" y="-35.0"/>
      <point x="66.0" y="35.0"/>
      <point x="66.0" y="153.0" type="qcurve" smooth="yes"/>
      <point x="66.0" y="914.0" type="line"/>
      <point x="654.0" y="914.0" type="line"/>
      <point x="654.0" y="57.0" type="line" smooth="yes"/>
      <point x="654.0" y="-202.0"/>
      <point x="359.0" y="-440.0"/>
      <point x="60.0" y="-440.0" type="qcurve" smooth="yes"/>
      <point x="-15.0" y="-440.0"/>
      <point x="-171.0" y="-426.0"/>
    </contour>
  </outline>
</glyph>
<glyph name="zerosuperior" format="2">
  <advance width="793"/>
  <outline>
    <contour>
      <point x="5.0" y="1085.0" type="qcurve" smooth="yes"/>
      <point x="5.0" y="1126.0" type="line" smooth="yes"/>
      <point x="5.0" y="1296.0"/>
      <point x="225.0" y="1496.0"/>
      <point x="397.0" y="1496.0" type="qcurve" smooth="yes"/>
      <point x="569.0" y="1496.0"/>
      <point x="788.0" y="1296.0"/>
      <point x="788.0" y="1126.0" type="qcurve" smooth="yes"/>
      <point x="788.0" y="1085.0" type="line" smooth="yes"/>
      <point x="788.0" y="890.0"/>
      <point x="569.0" y="680.0"/>
      <point x="397.0" y="680.0" type="qcurve" smooth="yes"/>
      <point x="225.0" y="680.0"/>
      <point x="5.0" y="890.0"/>
    </contour>
    <contour>
      <point x="358.0" y="1014.3571428571429" type="line" smooth="yes"/>
      <point x="358.0" y="973.4107142857143"/>
      <point x="375.73214285714283" y="946.0892857142857"/>
      <point x="396.73214285714283" y="946.0892857142857" type="qcurve" smooth="yes"/>
      <point x="417.73214285714283" y="946.0892857142857"/>
      <point x="435.0" y="971.0"/>
      <point x="435.0" y="1014.3571428571429" type="qcurve" smooth="yes"/>
      <point x="435.0" y="1154.3214285714287" type="line" smooth="yes"/>
      <point x="435.0" y="1195.8035714285713"/>
      <point x="417.51785714285717" y="1229.9107142857142"/>
      <point x="397.0" y="1229.9107142857142" type="qcurve" smooth="yes"/>
      <point x="377.55357142857144" y="1229.9107142857142"/>
      <point x="358.0" y="1195.0"/>
      <point x="358.0" y="1154.3214285714287" type="qcurve" smooth="yes"/>
    </contour>
  </outline>
</glyph>
